<svg xmlns="http://www.w3.org/2000/svg" xmlns:xlink="http://www.w3.org/1999/xlink" width="500" height="500" x="0" y="0" baseProfile="basic" enable-background="new .5 .5 500 500" version="1.1" viewBox="0.5 0.5 500 500" xml:space="preserve"><rect width="500.001" height="500" x=".5" y=".5" fill="#FFF" stroke="#000" display="none"/><polygon fill="#F495BC" points="280.249 176.074 250.502 212.455 220.752 176.074 113.194 176.074 113.194 490.252 387.665 490.252 387.665 176.074" display="none"/><line x1="250.502" x2="250.502" y1="212.455" y2="490.252" fill="none" stroke="#C9749B" display="none"/><circle cx="268.461" cy="238.414" r="4.574" fill="#FFF" display="none"/><circle cx="268.461" cy="268.062" r="4.574" fill="#FFF" display="none"/><circle cx="268.461" cy="297.706" r="4.573" fill="#FFF" display="none"/><circle cx="268.461" cy="327.352" r="4.573" fill="#FFF" display="none"/><circle cx="268.461" cy="356.998" r="4.574" fill="#FFF" display="none"/><circle cx="268.461" cy="386.642" r="4.572" fill="#FFF" display="none"/><circle cx="268.461" cy="416.289" r="4.572" fill="#FFF" display="none"/><circle cx="268.461" cy="445.936" r="4.572" fill="#FFF" display="none"/><path fill="#FFF" d="M268.461,471.01c2.526,0,4.575,2.048,4.575,4.571c0,2.529-2.049,4.576-4.575,4.576	c-2.525,0-4.574-2.047-4.574-4.576C263.887,473.058,265.936,471.01,268.461,471.01z" display="none"/><polygon fill="#F8BED6" stroke="#C9749B" stroke-linejoin="round" stroke-width=".829" points="167.43 255.369 167.43 282.486 185.501 300.337 203.567 282.486 203.567 255.369" display="none"/><line x1="203.567" x2="167.43" y1="265.421" y2="265.421" fill="none" stroke="#C9749B" stroke-linejoin="round" stroke-width=".829" display="none"/><polygon fill="#CD80A3" points="250.502 212.455 250.502 220.83 292.715 236.412 299.661 176.035 284.754 176.035" display="none"/><polygon fill="#CD80A3" points="250.502 212.455 250.502 220.83 208.29 236.412 201.341 176.035 216.25 176.035" display="none"/><polygon fill="#F8BED6" points="250.502 212.455 287.163 225.122 293.194 176.035 280.249 176.035" display="none"/><polygon fill="#F8BED6" points="250.502 212.455 213.84 225.122 207.805 176.035 220.754 176.035" display="none"/><rect width="48.993" height="19.485" x="78.028" y="258.015" fill="#F8BED6" display="none"/><path fill="#F495BC" d="M78.028,258.943v-59.952c0-13.086,10.968-23.697,24.498-23.697l0,0	c13.529,0,24.498,10.611,24.498,23.697v59.952H78.028z" display="none"/><circle cx="115.701" cy="267.856" r="4.184" fill="#FFF" display="none"/><path fill="#9FBF3B" d="M211.72,90.569L184.249,50.62c-1.201-1.74-3.44-2.275-5.003-1.199c-1.565,1.077-1.862,3.362-0.664,5.103	l27.593,40.12c1.251,1.702,3.507,2.171,5.038,1.045C212.742,94.565,212.97,92.274,211.72,90.569z"/></svg>