<svg xmlns="http://www.w3.org/2000/svg" xmlns:xlink="http://www.w3.org/1999/xlink" id="Layer_1" width="500" height="500" x="0" y="0" enable-background="new 0 0 500 500" version="1.1" viewBox="0 0 500 500" xml:space="preserve"><g id="Background" display="none"><rect width="500.001" height="500" x="0" y="0" fill="#FFF" stroke="#000" display="inline"/></g><g id="Test_Shirt_Body" display="none"><polygon fill="#F495BC" points="279.749 175.574 250.002 211.955 220.252 175.574 112.695 175.574 112.695 489.752 387.165 489.752 387.165 175.574" display="inline"/><line x1="250.002" x2="250.002" y1="211.955" y2="489.752" fill="none" stroke="#C9749B" display="inline"/><circle cx="267.961" cy="237.914" r="4.574" fill="#FFF" display="inline"/><circle cx="267.961" cy="267.561" r="4.574" fill="#FFF" display="inline"/><circle cx="267.961" cy="297.206" r="4.573" fill="#FFF" display="inline"/><circle cx="267.961" cy="326.852" r="4.573" fill="#FFF" display="inline"/><circle cx="267.961" cy="356.498" r="4.574" fill="#FFF" display="inline"/><circle cx="267.961" cy="386.142" r="4.572" fill="#FFF" display="inline"/><circle cx="267.961" cy="415.789" r="4.572" fill="#FFF" display="inline"/><circle cx="267.961" cy="445.435" r="4.572" fill="#FFF" display="inline"/><path fill="#FFF" d="M267.961,470.51c2.526,0,4.575,2.048,4.575,4.571c0,2.529-2.049,4.576-4.575,4.576 c-2.525,0-4.574-2.047-4.574-4.576C263.387,472.557,265.436,470.51,267.961,470.51z" display="inline"/><polygon fill="#F8BED6" stroke="#C9749B" stroke-linejoin="round" stroke-width=".829" points="166.93 254.869 166.93 281.986 185.001 299.837 203.068 281.986 203.068 254.869" display="inline"/><line x1="203.068" x2="166.93" y1="264.921" y2="264.921" fill="none" stroke="#C9749B" stroke-linejoin="round" stroke-width=".829" display="inline"/><polygon fill="#CD80A3" points="250.002 211.955 250.002 220.33 292.215 235.912 299.161 175.535 284.254 175.535" display="inline"/><polygon fill="#CD80A3" points="250.002 211.955 250.002 220.33 207.79 235.912 200.841 175.535 215.75 175.535" display="inline"/><polygon fill="#F8BED6" points="250.002 211.955 286.663 224.622 292.695 175.535 279.749 175.535" display="inline"/><polygon fill="#F8BED6" points="250.002 211.955 213.34 224.622 207.305 175.535 220.254 175.535" display="inline"/></g><g id="Layer_4" display="none"><g display="inline"><rect width="48.993" height="19.485" x="77.529" y="257.514" fill="#F8BED6"/><path fill="#F495BC" d="M77.529,258.443v-59.952c0-13.086,10.968-23.697,24.498-23.697l0,0c13.529,0,24.498,10.611,24.498,23.697 v59.952H77.529z"/><circle cx="115.201" cy="267.356" r="4.184" fill="#FFF"/></g></g><path fill="#9FBF3B" d="M182.165,424.71v2.571c0,13.451,10.901,24.354,24.354,24.354s24.355-10.903,24.355-24.354v-2.571H182.165z"/><path fill="#9FBF3B" d="M268.245,424.71v2.571c0,13.451,10.9,24.354,24.354,24.354s24.354-10.903,24.354-24.354v-2.571H268.245z"/></svg>